<svg width="17" height="16" viewBox="0 0 17 16" fill="none" xmlns="http://www.w3.org/2000/svg">
<path d="M8.5 11.8325L4.70821 8.04179L5.46679 7.27036L7.96429 9.76786V0.5H9.03571V9.76786L11.5321 7.27143L12.2918 8.04179L8.5 11.8325ZM1 15.5V11.1736H2.07143V14.4286H14.9286V11.1736H16V15.5H1Z" fill="#FFB116" fill-opacity="0.6"/>
<path d="M2.17188 11.0732V14.3281H14.8281V11.0732H16.0996V15.5996H0.900391V11.0732H2.17188ZM9.13574 0.400391V9.52637L11.4619 7.20117L11.5322 7.12988L11.6035 7.20117L12.3633 7.97168L12.4326 8.04199L12.3623 8.1123L8.57031 11.9033L8.5 11.9736L8.42969 11.9033L4.6377 8.1123L4.56738 8.04199L4.63672 7.97168L5.39551 7.2002L5.46582 7.12793L7.86426 9.52637V0.400391H9.13574Z" stroke="#FFB116" stroke-opacity="0.6" stroke-width="0.2"/>
</svg>
