<?xml version="1.0" encoding="utf-8"?><svg viewBox="0 0 20 24" xmlns="http://www.w3.org/2000/svg" xmlns:xlink="http://www.w3.org/1999/xlink"><style>:root>svg{display:none}:root>svg:target{display:block}</style><svg fill="none" viewBox="0 0 17 16" id="icon_download" xmlns="http://www.w3.org/2000/svg"><path d="m8.5 11.832-3.792-3.79.759-.772 2.497 2.498V.5h1.072v9.268l2.496-2.497.76.77L8.5 11.833ZM1 15.5v-4.326h1.071v3.255H14.93v-3.255H16V15.5H1Z" fill="#FFB116" fill-opacity=".6"/><path d="M2.172 11.073v3.255h12.656v-3.255H16.1V15.6H.9v-4.527h1.272ZM9.136.4v9.126l2.326-2.325.07-.071.072.071.76.77.069.071-.07.07-3.793 3.791-.07.07-.07-.07-3.792-3.79-.07-.071.069-.07.759-.772.07-.072 2.398 2.398V.4h1.272Z" stroke="#FFB116" stroke-opacity=".6" stroke-width=".2"/></svg><svg fill="none" viewBox="0 0 11 20" id="icon_facebook" xmlns="http://www.w3.org/2000/svg"><path d="M7 11.5h2.5l1-4H7v-2c0-1.03 0-2 2-2h1.5V.14C10.174.097 8.943 0 7.643 0 4.928 0 3 1.657 3 4.7v2.8H0v4h3V20h4v-8.5Z" fill="#151515"/></svg><svg fill="none" viewBox="0 0 20 20" id="icon_instagram" xmlns="http://www.w3.org/2000/svg"><path d="M11.028 0c1.125.003 1.696.009 2.189.023l.194.007c.224.008.445.018.712.03 1.064.05 1.79.218 2.427.465.66.254 1.216.598 1.772 1.153a4.9 4.9 0 0 1 1.153 1.772c.247.637.415 1.363.465 2.428.012.266.022.487.03.712l.006.194c.015.492.021 1.063.023 2.188l.001.746v1.31c.002.73-.005 1.459-.023 2.188l-.006.194c-.008.225-.018.446-.03.712-.05 1.065-.22 1.79-.466 2.428a4.9 4.9 0 0 1-1.153 1.772 4.9 4.9 0 0 1-1.772 1.153c-.637.247-1.363.415-2.427.465l-.712.03-.194.006c-.493.014-1.064.021-2.189.023l-.746.001H8.973c-.73.003-1.46-.005-2.189-.023l-.194-.006c-.237-.009-.475-.02-.712-.031-1.064-.05-1.79-.218-2.428-.465a4.899 4.899 0 0 1-1.771-1.153A4.9 4.9 0 0 1 .525 16.55C.278 15.913.11 15.187.06 14.122l-.03-.712-.005-.194A79.001 79.001 0 0 1 0 11.028V8.972a79 79 0 0 1 .022-2.188l.007-.194c.008-.225.018-.446.03-.712.05-1.065.218-1.79.465-2.428A4.9 4.9 0 0 1 1.68 1.678 4.9 4.9 0 0 1 3.45.525C4.088.278 4.813.11 5.878.06c.266-.012.488-.022.712-.03l.194-.006A79 79 0 0 1 8.972.001L11.028 0ZM10 5a5 5 0 1 0 0 10 5 5 0 0 0 0-10Zm0 2a3 3 0 1 1 0 6A3 3 0 0 1 10 7m5.25-3.5a1.25 1.25 0 1 0 0 2.5 1.25 1.25 0 0 0 0-2.5Z" fill="#151515"/></svg><svg fill="none" viewBox="0 0 13 24" id="icon_son" xmlns="http://www.w3.org/2000/svg"><path d="M12.5 0v12m0 0v12m0-12h12m-12 0H.5m12 0 6-10.392M12.5 12l-6 10.392M12.5 12l10.392 6M12.5 12 2.108 6M12.5 12l10.392-6M12.5 12 2.108 18M12.5 12l6 10.392M12.5 12l-6-10.392" stroke="#151515"/></svg><svg fill="none" viewBox="0 0 20 20" id="icon_x" xmlns="http://www.w3.org/2000/svg"><path d="M.127 0h5.89l5.241 7.497L17.55 0h1.882l-7.457 8.523L20 20h-5.887l-5.475-7.828L1.88 20H0l7.922-8.853L.127 0Z" fill="#151515"/></svg></svg>