<svg width="81" height="26" viewBox="0 0 81 26" fill="none" xmlns="http://www.w3.org/2000/svg">
<path d="M31.6263 11.3506C30.82 11.3506 30.1265 11.1782 29.5457 10.8334C28.9684 10.4853 28.5243 10.0026 28.2134 9.38554C27.9059 8.76846 27.7522 8.05829 27.7522 7.25505C27.7522 6.44146 27.9076 5.72785 28.2185 5.11421C28.5328 4.49713 28.9786 4.01622 29.556 3.67148C30.1334 3.32329 30.82 3.1492 31.616 3.1492C32.3027 3.1492 32.904 3.27503 33.4198 3.52669C33.9357 3.77835 34.3439 4.13171 34.6446 4.58676C34.9452 5.04182 35.1109 5.57617 35.1416 6.1898H33.0816C33.0235 5.79335 32.8698 5.47447 32.6204 5.23315C32.3744 4.98838 32.0516 4.866 31.6519 4.866C31.3137 4.866 31.0182 4.95908 30.7654 5.14524C30.516 5.32795 30.3212 5.59513 30.1812 5.94676C30.0411 6.29839 29.9711 6.72415 29.9711 7.22402C29.9711 7.73079 30.0394 8.16171 30.1761 8.5168C30.3161 8.87188 30.5126 9.1425 30.7654 9.32866C31.0182 9.51482 31.3137 9.6079 31.6519 9.6079C31.9013 9.6079 32.125 9.55619 32.3232 9.45276C32.5248 9.34934 32.6904 9.19938 32.8203 9.00288C32.9535 8.80293 33.0406 8.56334 33.0816 8.2841H35.1416C35.1075 8.89084 34.9435 9.42518 34.6497 9.88714C34.3593 10.3456 33.9579 10.7042 33.4454 10.9627C32.933 11.2213 32.3266 11.3506 31.6263 11.3506Z" fill="#FFB116"/>
<path d="M39.5492 11.3506C38.7395 11.3506 38.0426 11.1851 37.4584 10.8541C36.8777 10.5197 36.4301 10.0474 36.1158 9.43725C35.8015 8.82361 35.6444 8.09794 35.6444 7.26022C35.6444 6.44319 35.8015 5.72613 36.1158 5.10904C36.4301 4.49196 36.8725 4.01105 37.4431 3.66631C38.017 3.32157 38.69 3.1492 39.4621 3.1492C39.9814 3.1492 40.4648 3.23366 40.9123 3.40258C41.3633 3.56806 41.7561 3.81799 42.0909 4.15239C42.4291 4.48679 42.6922 4.90737 42.8801 5.41414C43.068 5.91746 43.1619 6.50696 43.1619 7.18265V7.78767H36.5155V6.4225H41.107C41.107 6.10534 41.0387 5.82438 40.9021 5.57961C40.7654 5.33485 40.5758 5.14352 40.3332 5.00562C40.0941 4.86428 39.8157 4.79361 39.498 4.79361C39.1666 4.79361 38.8728 4.87117 38.6166 5.02631C38.3638 5.17799 38.1656 5.38311 38.0221 5.64167C37.8786 5.89677 37.8052 6.18118 37.8018 6.4949V7.79284C37.8018 8.18585 37.8735 8.52541 38.017 8.81155C38.1639 9.09768 38.3706 9.31831 38.6371 9.47345C38.9035 9.62858 39.2195 9.70615 39.5851 9.70615C39.8276 9.70615 40.0497 9.67167 40.2513 9.60273C40.4528 9.53378 40.6253 9.43036 40.7688 9.29246C40.9123 9.15456 41.0216 8.98564 41.0968 8.78569L43.1158 8.92014C43.0133 9.40967 42.8032 9.83715 42.4855 10.2026C42.1712 10.5645 41.7647 10.8472 41.2659 11.0506C40.7705 11.2506 40.1983 11.3506 39.5492 11.3506Z" fill="#FFB116"/>
<path d="M46.1923 0.605018V11.1954H44.0093V0.605018H46.1923Z" fill="#FFB116"/>
<path d="M50.9509 11.3506C50.1413 11.3506 49.4443 11.1851 48.8601 10.8541C48.2794 10.5197 47.8318 10.0474 47.5175 9.43725C47.2032 8.82361 47.0461 8.09794 47.0461 7.26022C47.0461 6.44319 47.2032 5.72613 47.5175 5.10904C47.8318 4.49196 48.2743 4.01105 48.8448 3.66631C49.4187 3.32157 50.0917 3.1492 50.8638 3.1492C51.3831 3.1492 51.8665 3.23366 52.314 3.40258C52.765 3.56806 53.1578 3.81799 53.4926 4.15239C53.8309 4.48679 54.0939 4.90737 54.2818 5.41414C54.4697 5.91746 54.5636 6.50696 54.5636 7.18265V7.78767H47.9173V6.4225H52.5087C52.5087 6.10534 52.4404 5.82438 52.3038 5.57961C52.1671 5.33485 51.9775 5.14352 51.735 5.00562C51.4958 4.86428 51.2174 4.79361 50.8997 4.79361C50.5683 4.79361 50.2745 4.87117 50.0183 5.02631C49.7655 5.17799 49.5673 5.38311 49.4238 5.64167C49.2804 5.89677 49.2069 6.18118 49.2035 6.4949V7.79284C49.2035 8.18585 49.2752 8.52541 49.4187 8.81155C49.5656 9.09768 49.7723 9.31831 50.0388 9.47345C50.3052 9.62858 50.6212 9.70615 50.9868 9.70615C51.2293 9.70615 51.4514 9.67167 51.653 9.60273C51.8545 9.53378 52.0271 9.43036 52.1705 9.29246C52.314 9.15456 52.4233 8.98564 52.4985 8.78569L54.5175 8.92014C54.415 9.40967 54.2049 9.83715 53.8872 10.2026C53.5729 10.5645 53.1664 10.8472 52.6676 11.0506C52.1722 11.2506 51.6 11.3506 50.9509 11.3506Z" fill="#FFB116"/>
<path d="M61.96 5.51756L59.9615 5.64167C59.9274 5.4693 59.8539 5.31416 59.7412 5.17627C59.6284 5.03492 59.4798 4.92288 59.2953 4.84015C59.1143 4.75396 58.8973 4.71087 58.6445 4.71087C58.3063 4.71087 58.0211 4.78326 57.7888 4.92805C57.5564 5.0694 57.4403 5.259 57.4403 5.49687C57.4403 5.68648 57.5155 5.84679 57.6658 5.97779C57.8161 6.10879 58.074 6.21393 58.4396 6.29322L59.8642 6.58281C60.6294 6.74139 61.1999 6.99649 61.5757 7.34813C61.9515 7.69976 62.1394 8.16171 62.1394 8.73398C62.1394 9.25454 61.9874 9.71132 61.6833 10.1043C61.3827 10.4973 60.9693 10.8041 60.4432 11.0248C59.9205 11.242 59.3175 11.3506 58.6343 11.3506C57.5923 11.3506 56.7622 11.1316 56.1438 10.6938C55.5289 10.2526 55.1685 9.65271 55.0626 8.89429L57.2097 8.78052C57.2746 9.10113 57.4318 9.34589 57.6811 9.51482C57.9305 9.68029 58.25 9.76303 58.6394 9.76303C59.022 9.76303 59.3295 9.68891 59.5618 9.54067C59.7975 9.38899 59.9171 9.19421 59.9205 8.95634C59.9171 8.75639 59.8334 8.59264 59.6694 8.46508C59.5054 8.33408 59.2526 8.23411 58.911 8.16516L57.5479 7.89109C56.7792 7.73596 56.207 7.46706 55.8312 7.0844C55.4588 6.70174 55.2727 6.21393 55.2727 5.62098C55.2727 5.11077 55.4093 4.67122 55.6826 4.30235C55.9593 3.93348 56.3471 3.64907 56.8459 3.44912C57.3481 3.24917 57.9357 3.1492 58.6087 3.1492C59.6028 3.1492 60.3851 3.36121 60.9557 3.78524C61.5296 4.20927 61.8644 4.78671 61.96 5.51756Z" fill="#FFB116"/>
<path d="M67.1235 3.25262V4.90737H62.3834V3.25262H67.1235ZM63.4595 1.34966H65.6425V8.75467C65.6425 8.95806 65.6733 9.11664 65.7348 9.23041C65.7962 9.34072 65.8817 9.41829 65.991 9.46311C66.1037 9.50792 66.2335 9.53033 66.3804 9.53033C66.4829 9.53033 66.5854 9.52171 66.6879 9.50447C66.7904 9.48379 66.869 9.46828 66.9236 9.45793L67.267 11.0972C67.1576 11.1316 67.0039 11.1713 66.8058 11.2161C66.6076 11.2644 66.3668 11.2937 66.0832 11.304C65.5571 11.3247 65.0959 11.254 64.6996 11.092C64.3067 10.93 64.001 10.6783 63.7823 10.337C63.5637 9.99573 63.4561 9.56481 63.4595 9.04425V1.34966Z" fill="#FFB116"/>
<path d="M67.9683 11.1954V3.25262H70.1513V11.1954H67.9683ZM69.0649 2.22874C68.7404 2.22874 68.4619 2.12015 68.2296 1.90296C68.0007 1.68233 67.8863 1.4186 67.8863 1.11179C67.8863 0.808415 68.0007 0.548136 68.2296 0.330951C68.4619 0.110317 68.7404 0 69.0649 0C69.3895 0 69.6662 0.110317 69.8951 0.330951C70.1274 0.548136 70.2435 0.808415 70.2435 1.11179C70.2435 1.4186 70.1274 1.68233 69.8951 1.90296C69.6662 2.12015 69.3895 2.22874 69.0649 2.22874Z" fill="#FFB116"/>
<path d="M73.5673 11.3454C73.0651 11.3454 72.6176 11.2575 72.2247 11.0817C71.8318 10.9024 71.5209 10.6387 71.2921 10.2905C71.0666 9.93885 70.9538 9.50103 70.9538 8.97702C70.9538 8.53576 71.0341 8.16516 71.1947 7.86524C71.3553 7.56531 71.5739 7.324 71.8506 7.14128C72.1273 6.95857 72.4416 6.82068 72.7935 6.7276C73.1488 6.63452 73.5212 6.56902 73.9106 6.53109C74.3684 6.48283 74.7374 6.43801 75.0175 6.39665C75.2976 6.35183 75.5009 6.28633 75.6273 6.20014C75.7537 6.11396 75.8169 5.98641 75.8169 5.81748V5.78646C75.8169 5.45895 75.7144 5.20557 75.5095 5.02631C75.3079 4.84704 75.0209 4.75741 74.6486 4.75741C74.2557 4.75741 73.9431 4.84532 73.7108 5.02113C73.4785 5.1935 73.3247 5.41069 73.2496 5.67269L71.2306 5.50722C71.333 5.02458 71.5346 4.60745 71.8352 4.25581C72.1359 3.90073 72.5236 3.62839 72.9985 3.43878C73.4768 3.24572 74.0302 3.1492 74.6588 3.1492C75.0961 3.1492 75.5146 3.20091 75.9143 3.30433C76.3174 3.40775 76.6744 3.56806 76.9853 3.78524C77.2996 4.00243 77.5473 4.28167 77.7283 4.62296C77.9094 4.9608 77.9999 5.36587 77.9999 5.83817V11.1954H75.9297V10.094H75.8682C75.7418 10.3422 75.5727 10.5611 75.3609 10.7507C75.149 10.9369 74.8945 11.0834 74.5973 11.1903C74.3001 11.2937 73.9568 11.3454 73.5673 11.3454ZM74.1925 9.82508C74.5136 9.82508 74.7972 9.76131 75.0431 9.63375C75.2891 9.50275 75.4821 9.32693 75.6222 9.1063C75.7623 8.88567 75.8323 8.63573 75.8323 8.35649V7.5136C75.764 7.55842 75.67 7.59979 75.5505 7.63771C75.4343 7.67218 75.3028 7.70493 75.1559 7.73596C75.009 7.76354 74.8621 7.78939 74.7152 7.81353C74.5683 7.83421 74.435 7.85317 74.3155 7.87041C74.0592 7.90833 73.8355 7.96866 73.6442 8.0514C73.4529 8.13413 73.3042 8.24617 73.1983 8.38752C73.0924 8.52541 73.0395 8.69778 73.0395 8.90463C73.0395 9.20455 73.1471 9.4338 73.3623 9.59238C73.581 9.74752 73.8577 9.82508 74.1925 9.82508Z" fill="#FFB116"/>
<path d="M34.8974 20.167L32.8989 20.2911C32.8647 20.1187 32.7913 19.9636 32.6785 19.8257C32.5658 19.6844 32.4172 19.5723 32.2327 19.4896C32.0516 19.4034 31.8347 19.3603 31.5819 19.3603C31.2437 19.3603 30.9584 19.4327 30.7261 19.5775C30.4938 19.7188 30.3777 19.9084 30.3777 20.1463C30.3777 20.3359 30.4528 20.4962 30.6031 20.6272C30.7535 20.7582 31.0114 20.8634 31.3769 20.9427L32.8015 21.2323C33.5668 21.3908 34.1373 21.6459 34.5131 21.9976C34.8889 22.3492 35.0768 22.8112 35.0768 23.3834C35.0768 23.904 34.9247 24.3608 34.6207 24.7538C34.3201 25.1468 33.9067 25.4536 33.3806 25.6742C32.8579 25.8914 32.2549 26 31.5717 26C30.5297 26 29.6995 25.7811 29.0812 25.3433C28.4663 24.902 28.1058 24.3022 27.9999 23.5437L30.1471 23.43C30.212 23.7506 30.3691 23.9953 30.6185 24.1643C30.8679 24.3297 31.1873 24.4125 31.5768 24.4125C31.9594 24.4125 32.2669 24.3384 32.4992 24.1901C32.7349 24.0384 32.8545 23.8437 32.8579 23.6058C32.8545 23.4058 32.7708 23.2421 32.6068 23.1145C32.4428 22.9835 32.19 22.8836 31.8484 22.8146L30.4853 22.5405C29.7166 22.3854 29.1444 22.1165 28.7686 21.7338C28.3962 21.3512 28.21 20.8634 28.21 20.2704C28.21 19.7602 28.3467 19.3207 28.62 18.9518C28.8967 18.5829 29.2845 18.2985 29.7832 18.0986C30.2854 17.8986 30.873 17.7986 31.546 17.7986C32.5402 17.7986 33.3225 18.0107 33.893 18.4347C34.467 18.8587 34.8018 19.4362 34.8974 20.167Z" fill="#FFB116"/>
<path d="M40.0608 17.9021V19.5568H35.3207V17.9021H40.0608ZM36.3969 15.9991H38.5799V23.4041C38.5799 23.6075 38.6106 23.7661 38.6721 23.8799C38.7336 23.9902 38.819 24.0677 38.9283 24.1126C39.0411 24.1574 39.1709 24.1798 39.3178 24.1798C39.4203 24.1798 39.5228 24.1712 39.6253 24.1539C39.7278 24.1332 39.8063 24.1177 39.861 24.1074L40.2043 25.7466C40.095 25.7811 39.9413 25.8207 39.7431 25.8656C39.545 25.9138 39.3041 25.9431 39.0206 25.9535C38.4945 25.9741 38.0333 25.9035 37.637 25.7414C37.2441 25.5794 36.9384 25.3278 36.7197 24.9865C36.5011 24.6452 36.3935 24.2142 36.3969 23.6937V15.9991Z" fill="#FFB116"/>
<path d="M45.9532 22.463V17.9021H48.1362V25.8449H46.0403V24.4021H45.9584C45.7807 24.8675 45.4852 25.2416 45.0718 25.5243C44.6619 25.8069 44.1614 25.9483 43.5704 25.9483C43.0443 25.9483 42.5814 25.8276 42.1816 25.5863C41.7819 25.345 41.4693 25.002 41.2439 24.5573C41.0218 24.1126 40.9091 23.5799 40.9057 22.9594V17.9021H43.0887V22.5664C43.0921 23.0352 43.2168 23.4058 43.4628 23.6782C43.7087 23.9505 44.0384 24.0867 44.4518 24.0867C44.7148 24.0867 44.9608 24.0264 45.1897 23.9057C45.4186 23.7816 45.6031 23.5989 45.7431 23.3576C45.8866 23.1163 45.9566 22.8181 45.9532 22.463Z" fill="#FFB116"/>
<path d="M52.2056 25.9741C51.6078 25.9741 51.0663 25.819 50.5812 25.5087C50.0995 25.195 49.7168 24.7348 49.4333 24.1281C49.1531 23.5179 49.0131 22.7698 49.0131 21.8838C49.0131 20.9737 49.1583 20.217 49.4487 19.6137C49.739 19.007 50.1251 18.5536 50.6068 18.2537C51.0919 17.9503 51.6231 17.7986 52.2005 17.7986C52.6412 17.7986 53.0084 17.8745 53.3022 18.0262C53.5994 18.1744 53.8386 18.3606 54.0197 18.5846C54.2041 18.8053 54.3442 19.0225 54.4399 19.2362H54.5065V15.2545H56.6844V25.8449H54.5321V24.5728H54.4399C54.3374 24.7934 54.1922 25.0123 54.0043 25.2295C53.8198 25.4432 53.579 25.6208 53.2817 25.7621C52.9879 25.9035 52.6292 25.9741 52.2056 25.9741ZM52.8974 24.2211C53.2493 24.2211 53.5465 24.1246 53.7891 23.9316C54.035 23.7351 54.2229 23.461 54.3527 23.1094C54.486 22.7577 54.5526 22.3458 54.5526 21.8735C54.5526 21.4012 54.4877 20.9909 54.3579 20.6427C54.228 20.2946 54.0402 20.0257 53.7942 19.8361C53.5482 19.6464 53.2493 19.5516 52.8974 19.5516C52.5387 19.5516 52.2364 19.6499 51.9904 19.8464C51.7444 20.0429 51.5582 20.3152 51.4318 20.6634C51.3054 21.0116 51.2422 21.415 51.2422 21.8735C51.2422 22.3354 51.3054 22.7439 51.4318 23.099C51.5616 23.4507 51.7478 23.7264 51.9904 23.9264C52.2364 24.1229 52.5387 24.2211 52.8974 24.2211Z" fill="#FFB116"/>
<path d="M57.902 25.8449V17.9021H60.085V25.8449H57.902ZM58.9986 16.8782C58.6741 16.8782 58.3956 16.7696 58.1633 16.5524C57.9344 16.3318 57.82 16.068 57.82 15.7612C57.82 15.4579 57.9344 15.1976 58.1633 14.9804C58.3956 14.7598 58.6741 14.6494 58.9986 14.6494C59.3232 14.6494 59.5999 14.7598 59.8288 14.9804C60.0611 15.1976 60.1772 15.4579 60.1772 15.7612C60.1772 16.068 60.0611 16.3318 59.8288 16.5524C59.5999 16.7696 59.3232 16.8782 58.9986 16.8782Z" fill="#FFB116"/>
<path d="M64.8128 26C64.0168 26 63.3285 25.8294 62.7477 25.4881C62.1703 25.1433 61.7245 24.6641 61.4102 24.0505C61.0959 23.4334 60.9388 22.7181 60.9388 21.9045C60.9388 21.084 61.0959 20.367 61.4102 19.7533C61.7245 19.1362 62.1703 18.657 62.7477 18.3158C63.3285 17.971 64.0168 17.7986 64.8128 17.7986C65.6088 17.7986 66.2955 17.971 66.8729 18.3158C67.4536 18.657 67.9012 19.1362 68.2155 19.7533C68.5298 20.367 68.6869 21.084 68.6869 21.9045C68.6869 22.7181 68.5298 23.4334 68.2155 24.0505C67.9012 24.6641 67.4536 25.1433 66.8729 25.4881C66.2955 25.8294 65.6088 26 64.8128 26ZM64.8231 24.2935C65.1852 24.2935 65.4876 24.1901 65.7301 23.9833C65.9727 23.773 66.1554 23.4868 66.2784 23.1249C66.4048 22.7629 66.468 22.3509 66.468 21.889C66.468 21.427 66.4048 21.0151 66.2784 20.6531C66.1554 20.2911 65.9727 20.005 65.7301 19.7947C65.4876 19.5844 65.1852 19.4792 64.8231 19.4792C64.4575 19.4792 64.1501 19.5844 63.9007 19.7947C63.6547 20.005 63.4685 20.2911 63.3421 20.6531C63.2191 21.0151 63.1576 21.427 63.1576 21.889C63.1576 22.3509 63.2191 22.7629 63.3421 23.1249C63.4685 23.4868 63.6547 23.773 63.9007 23.9833C64.1501 24.1901 64.4575 24.2935 64.8231 24.2935Z" fill="#FFB116"/>
<path d="M76.0782 20.167L74.0797 20.2911C74.0455 20.1187 73.972 19.9636 73.8593 19.8257C73.7466 19.6844 73.598 19.5723 73.4135 19.4896C73.2324 19.4034 73.0155 19.3603 72.7627 19.3603C72.4245 19.3603 72.1392 19.4327 71.9069 19.5775C71.6746 19.7188 71.5584 19.9084 71.5584 20.1463C71.5584 20.3359 71.6336 20.4962 71.7839 20.6272C71.9342 20.7582 72.1922 20.8634 72.5577 20.9427L73.9823 21.2323C74.7475 21.3908 75.3181 21.6459 75.6939 21.9976C76.0696 22.3492 76.2575 22.8112 76.2575 23.3834C76.2575 23.904 76.1055 24.3608 75.8015 24.7538C75.5008 25.1468 75.0875 25.4536 74.5614 25.6742C74.0387 25.8914 73.4357 26 72.7524 26C71.7105 26 70.8803 25.7811 70.262 25.3433C69.647 24.902 69.2866 24.3022 69.1807 23.5437L71.3278 23.43C71.3927 23.7506 71.5499 23.9953 71.7993 24.1643C72.0487 24.3297 72.3681 24.4125 72.7576 24.4125C73.1402 24.4125 73.4476 24.3384 73.68 24.1901C73.9157 24.0384 74.0352 23.8437 74.0387 23.6058C74.0352 23.4058 73.9515 23.2421 73.7876 23.1145C73.6236 22.9835 73.3708 22.8836 73.0291 22.8146L71.666 22.5405C70.8974 22.3854 70.3252 22.1165 69.9494 21.7338C69.577 21.3512 69.3908 20.8634 69.3908 20.2704C69.3908 19.7602 69.5275 19.3207 69.8008 18.9518C70.0775 18.5829 70.4652 18.2985 70.964 18.0986C71.4662 17.8986 72.0538 17.7986 72.7268 17.7986C73.7209 17.7986 74.5033 18.0107 75.0738 18.4347C75.6477 18.8587 75.9825 19.4362 76.0782 20.167Z" fill="#FFB116"/>
<path d="M12 2L12 14M12 14L12 26M12 14H80M12 14L0 14M12 14L18.0001 3.60781M12 14L6.00012 24.3924M12 14L22.3924 20.0001M12 14L1.60781 8.00011M12 14L22.3922 8.00012M12 14L1.60758 20.0001M12 14L17.9999 24.3924M12 14L5.99988 3.60781" stroke="#FFB116"/>
</svg>
